<?xml version="1.0" encoding="UTF-8"?><svg xmlns="http://www.w3.org/2000/svg" xmlns:xlink="http://www.w3.org/1999/xlink" fill-opacity="1" color-rendering="auto" color-interpolation="auto" text-rendering="auto" stroke="black" stroke-linecap="square" width="1194" stroke-miterlimit="10" shape-rendering="auto" stroke-opacity="1" fill="black" stroke-dasharray="none" font-weight="normal" stroke-width="1" height="889" font-family="'Dialog'" font-style="normal" stroke-linejoin="miter" font-size="12px" stroke-dashoffset="0" image-rendering="auto">
  <!--Generated by ySVG 2.5-->
  <defs id="genericDefs"/>
  <g>
    <defs id="defs1">
      <clipPath clipPathUnits="userSpaceOnUse" id="clipPath1">
        <path d="M0 0 L1194 0 L1194 889 L0 889 L0 0 Z"/>
      </clipPath>
      <clipPath clipPathUnits="userSpaceOnUse" id="clipPath2">
        <path d="M-232 -58 L962 -58 L962 831 L-232 831 L-232 -58 Z"/>
      </clipPath>
      <clipPath clipPathUnits="userSpaceOnUse" id="clipPath3">
        <path d="M517 178 L517 334 L946 334 L946 178 Z"/>
      </clipPath>
      <clipPath clipPathUnits="userSpaceOnUse" id="clipPath4">
        <path d="M98 178 L98 334 L448 334 L448 178 Z"/>
      </clipPath>
      <clipPath clipPathUnits="userSpaceOnUse" id="clipPath5">
        <path d="M-169 178 L-169 241 L31 241 L31 178 Z"/>
      </clipPath>
      <clipPath clipPathUnits="userSpaceOnUse" id="clipPath6">
        <path d="M-169 271 L-169 334 L31 334 L31 271 Z"/>
      </clipPath>
      <clipPath clipPathUnits="userSpaceOnUse" id="clipPath7">
        <path d="M579 659 L579 815 L883 815 L883 659 Z"/>
      </clipPath>
      <clipPath clipPathUnits="userSpaceOnUse" id="clipPath8">
        <path d="M579 -42 L579 42 L883 42 L883 -42 Z"/>
      </clipPath>
    </defs>
    <g fill="white" text-rendering="geometricPrecision" shape-rendering="geometricPrecision" transform="translate(232,58)" stroke="white">
      <rect x="-232" width="1194" height="889" y="-58" clip-path="url(#clipPath2)" stroke="none"/>
    </g>
    <g fill="rgb(255,204,0)" text-rendering="geometricPrecision" shape-rendering="geometricPrecision" transform="matrix(1,0,0,1,232,58)" stroke="rgb(255,204,0)">
      <rect x="518" width="427" height="154" y="179" clip-path="url(#clipPath2)" stroke="none"/>
      <rect x="517" y="178" clip-path="url(#clipPath2)" fill="yellow" width="1" height="156" stroke="none"/>
      <rect x="518" y="178" clip-path="url(#clipPath2)" fill="yellow" width="427" height="1" stroke="none"/>
      <rect x="518" y="333" clip-path="url(#clipPath2)" fill="rgb(178,142,0)" width="428" height="1" stroke="none"/>
      <rect x="945" y="178" clip-path="url(#clipPath2)" fill="rgb(178,142,0)" width="1" height="155" stroke="none"/>
    </g>
    <g text-rendering="geometricPrecision" stroke-miterlimit="1.45" shape-rendering="geometricPrecision" font-family="sans-serif" transform="matrix(1,0,0,1,232,58)" stroke-linecap="butt">
      <text x="696.8461" xml:space="preserve" y="194.9387" clip-path="url(#clipPath3)" stroke="none">&lt;&lt;class&gt;&gt;</text>
      <text x="652.4249" font-size="13px" y="218.8356" clip-path="url(#clipPath3)" stroke="none" font-weight="bold" xml:space="preserve">CachingHtmlCompiler</text>
      <line stroke-linecap="square" clip-path="url(#clipPath3)" fill="none" x1="518" x2="945" y1="226" y2="226" stroke-miterlimit="10"/>
      <line stroke-linecap="square" clip-path="url(#clipPath3)" fill="none" x1="518" x2="945" y1="236" y2="236" stroke-miterlimit="10"/>
      <text x="522.35" xml:space="preserve" y="253.0402" clip-path="url(#clipPath3)" stroke="none">constructor: (name, tagScannerFct, tagHandlerFct) =&gt; instance</text>
    </g>
    <g fill="rgb(255,204,0)" text-rendering="geometricPrecision" shape-rendering="geometricPrecision" transform="matrix(1,0,0,1,232,58)" stroke="rgb(255,204,0)">
      <rect x="99" width="348" height="154" y="179" clip-path="url(#clipPath2)" stroke="none"/>
      <rect x="98" y="178" clip-path="url(#clipPath2)" fill="yellow" width="1" height="156" stroke="none"/>
      <rect x="99" y="178" clip-path="url(#clipPath2)" fill="yellow" width="348" height="1" stroke="none"/>
      <rect x="99" y="333" clip-path="url(#clipPath2)" fill="rgb(178,142,0)" width="349" height="1" stroke="none"/>
      <rect x="447" y="178" clip-path="url(#clipPath2)" fill="rgb(178,142,0)" width="1" height="155" stroke="none"/>
    </g>
    <g text-rendering="geometricPrecision" stroke-miterlimit="1.45" shape-rendering="geometricPrecision" font-family="sans-serif" transform="matrix(1,0,0,1,232,58)" stroke-linecap="butt">
      <text x="238.7461" xml:space="preserve" y="194.9387" clip-path="url(#clipPath4)" stroke="none">&lt;&lt;class&gt;&gt;</text>
      <text x="212.7903" font-size="13px" y="218.8356" clip-path="url(#clipPath4)" stroke="none" font-weight="bold" xml:space="preserve">TemplatingTools</text>
      <line stroke-linecap="square" clip-path="url(#clipPath4)" fill="none" x1="99" x2="447" y1="226" y2="226" stroke-miterlimit="10"/>
      <line stroke-linecap="square" clip-path="url(#clipPath4)" fill="none" x1="99" x2="447" y1="236" y2="236" stroke-miterlimit="10"/>
      <text x="103.75" xml:space="preserve" y="253.0402" clip-path="url(#clipPath4)" stroke="none">scanHtmlForTags: sourceFile =&gt; [ { tag} ]</text>
      <text x="103.75" xml:space="preserve" y="267.009" clip-path="url(#clipPath4)" stroke="none">compileTagsWithSpacebars: [ {tag} ] =&gt; { results }</text>
    </g>
    <g fill="rgb(255,204,0)" text-rendering="geometricPrecision" shape-rendering="geometricPrecision" transform="matrix(1,0,0,1,232,58)" stroke="rgb(255,204,0)">
      <rect x="-168" width="198" height="61" y="179" clip-path="url(#clipPath2)" stroke="none"/>
      <rect x="-169" y="178" clip-path="url(#clipPath2)" fill="yellow" width="1" height="63" stroke="none"/>
      <rect x="-168" y="178" clip-path="url(#clipPath2)" fill="yellow" width="198" height="1" stroke="none"/>
      <rect x="-168" y="240" clip-path="url(#clipPath2)" fill="rgb(178,142,0)" width="199" height="1" stroke="none"/>
      <rect x="30" y="178" clip-path="url(#clipPath2)" fill="rgb(178,142,0)" width="1" height="62" stroke="none"/>
    </g>
    <g text-rendering="geometricPrecision" stroke-miterlimit="1.45" shape-rendering="geometricPrecision" font-family="sans-serif" transform="matrix(1,0,0,1,232,58)" stroke-linecap="butt">
      <text x="-104.8539" xml:space="preserve" y="194.9387" clip-path="url(#clipPath5)" stroke="none">&lt;&lt;class&gt;&gt;</text>
      <text x="-104.9462" font-size="13px" y="218.8356" clip-path="url(#clipPath5)" stroke="none" font-weight="bold" xml:space="preserve">HtmlScan</text>
    </g>
    <g fill="rgb(255,204,0)" text-rendering="geometricPrecision" shape-rendering="geometricPrecision" transform="matrix(1,0,0,1,232,58)" stroke="rgb(255,204,0)">
      <rect x="-168" width="198" height="61" y="272" clip-path="url(#clipPath2)" stroke="none"/>
      <rect x="-169" y="271" clip-path="url(#clipPath2)" fill="yellow" width="1" height="63" stroke="none"/>
      <rect x="-168" y="271" clip-path="url(#clipPath2)" fill="yellow" width="198" height="1" stroke="none"/>
      <rect x="-168" y="333" clip-path="url(#clipPath2)" fill="rgb(178,142,0)" width="199" height="1" stroke="none"/>
      <rect x="30" y="271" clip-path="url(#clipPath2)" fill="rgb(178,142,0)" width="1" height="62" stroke="none"/>
    </g>
    <g text-rendering="geometricPrecision" stroke-miterlimit="1.45" shape-rendering="geometricPrecision" font-family="sans-serif" transform="matrix(1,0,0,1,232,58)" stroke-linecap="butt">
      <text x="-104.8539" xml:space="preserve" y="287.9387" clip-path="url(#clipPath6)" stroke="none">&lt;&lt;class&gt;&gt;</text>
      <text x="-154.1501" font-size="13px" y="311.8356" clip-path="url(#clipPath6)" stroke="none" font-weight="bold" xml:space="preserve">SpacebarsTagCompiler</text>
    </g>
    <g fill="rgb(255,204,0)" text-rendering="geometricPrecision" shape-rendering="geometricPrecision" transform="matrix(1,0,0,1,232,58)" stroke="rgb(255,204,0)">
      <rect x="-215" width="290" height="111" y="429" clip-path="url(#clipPath2)" stroke="none"/>
      <rect x="-216" y="428" clip-path="url(#clipPath2)" fill="yellow" width="1" height="113" stroke="none"/>
      <rect x="-215" y="428" clip-path="url(#clipPath2)" fill="yellow" width="290" height="1" stroke="none"/>
      <rect x="-215" y="540" clip-path="url(#clipPath2)" fill="rgb(178,142,0)" width="291" height="1" stroke="none"/>
      <rect x="75" y="428" clip-path="url(#clipPath2)" fill="rgb(178,142,0)" width="1" height="112" stroke="none"/>
    </g>
    <g text-rendering="geometricPrecision" stroke-miterlimit="1.45" shape-rendering="geometricPrecision" font-family="sans-serif" transform="matrix(1,0,0,1,232,58)" stroke-linecap="butt">
      <text x="-104.8539" xml:space="preserve" y="444.9387" clip-path="url(#clipPath2)" stroke="none">&lt;&lt;class&gt;&gt;</text>
      <text x="-140.6772" font-size="13px" y="468.8356" clip-path="url(#clipPath2)" stroke="none" font-weight="bold" xml:space="preserve">SpacebarsCompiler</text>
      <line stroke-linecap="square" clip-path="url(#clipPath2)" fill="none" x1="-215" x2="75" y1="476" y2="476" stroke-miterlimit="10"/>
      <line stroke-linecap="square" clip-path="url(#clipPath2)" fill="none" x1="-215" x2="75" y1="486" y2="486" stroke-miterlimit="10"/>
      <text x="-211.1" xml:space="preserve" y="503.0402" clip-path="url(#clipPath2)" stroke="none">compile: (input, options) =&gt; code:String</text>
      <text x="-211.1" xml:space="preserve" y="517.009" clip-path="url(#clipPath2)" stroke="none">isReservedName: name =&gt; Boolean</text>
    </g>
    <g fill="rgb(255,204,0)" text-rendering="geometricPrecision" shape-rendering="geometricPrecision" transform="matrix(1,0,0,1,232,58)" stroke="rgb(255,204,0)">
      <rect x="580" width="302" height="154" y="660" clip-path="url(#clipPath2)" stroke="none"/>
      <rect x="579" y="659" clip-path="url(#clipPath2)" fill="yellow" width="1" height="156" stroke="none"/>
      <rect x="580" y="659" clip-path="url(#clipPath2)" fill="yellow" width="302" height="1" stroke="none"/>
      <rect x="580" y="814" clip-path="url(#clipPath2)" fill="rgb(178,142,0)" width="303" height="1" stroke="none"/>
      <rect x="882" y="659" clip-path="url(#clipPath2)" fill="rgb(178,142,0)" width="1" height="155" stroke="none"/>
    </g>
    <g text-rendering="geometricPrecision" stroke-miterlimit="1.45" shape-rendering="geometricPrecision" font-family="sans-serif" transform="matrix(1,0,0,1,232,58)" stroke-linecap="butt">
      <text x="688.5228" xml:space="preserve" y="675.1387" clip-path="url(#clipPath7)" stroke="none">&lt;&lt;isobuild&gt;&gt;</text>
      <text x="708.7223" font-size="13px" y="699.0356" clip-path="url(#clipPath7)" stroke="none" font-weight="bold" xml:space="preserve">Plugin</text>
      <line stroke-linecap="square" clip-path="url(#clipPath7)" fill="none" x1="580" x2="882" y1="707" y2="707" stroke-miterlimit="10"/>
      <line stroke-linecap="square" clip-path="url(#clipPath7)" fill="none" x1="580" x2="882" y1="717" y2="717" stroke-miterlimit="10"/>
      <text x="584.85" xml:space="preserve" y="733.2402" clip-path="url(#clipPath7)" stroke="none">registerCompiler</text>
    </g>
    <g fill="rgb(255,204,0)" text-rendering="geometricPrecision" shape-rendering="geometricPrecision" transform="matrix(1,0,0,1,232,58)" stroke="rgb(255,204,0)">
      <path d="M579.85 438.1608 L868.85 438.1608 L868.85 453.1608 L883.85 453.1608 L883.85 534.1608 L579.85 534.1608 Z" stroke="none" clip-path="url(#clipPath2)"/>
      <path fill="white" d="M868.85 438.1608 L868.85 453.1608 L883.85 453.1608 Z" clip-path="url(#clipPath2)" fill-rule="evenodd" stroke="none"/>
    </g>
    <g text-rendering="geometricPrecision" stroke-miterlimit="1.45" shape-rendering="geometricPrecision" transform="matrix(1,0,0,1,232,58)" stroke-linecap="butt">
      <path fill="none" d="M579.85 438.1608 L868.85 438.1608 L868.85 453.1608 L883.85 453.1608 L883.85 534.1608 L579.85 534.1608 Z" clip-path="url(#clipPath2)"/>
      <path fill="none" d="M868.85 438.1608 L868.85 453.1608 L883.85 453.1608 Z" clip-path="url(#clipPath2)" fill-rule="evenodd"/>
      <text x="647.2318" xml:space="preserve" y="490.3151" clip-path="url(#clipPath2)" font-family="sans-serif" stroke="none">new CachingHtmlCompiler()</text>
    </g>
    <g fill="rgb(255,204,0)" text-rendering="geometricPrecision" shape-rendering="geometricPrecision" transform="matrix(1,0,0,1,232,58)" stroke="rgb(255,204,0)">
      <rect x="580" width="302" height="82" y="-41" clip-path="url(#clipPath2)" stroke="none"/>
      <rect x="579" y="-42" clip-path="url(#clipPath2)" fill="yellow" width="1" height="84" stroke="none"/>
      <rect x="580" y="-42" clip-path="url(#clipPath2)" fill="yellow" width="302" height="1" stroke="none"/>
      <rect x="580" y="41" clip-path="url(#clipPath2)" fill="rgb(178,142,0)" width="303" height="1" stroke="none"/>
      <rect x="882" y="-42" clip-path="url(#clipPath2)" fill="rgb(178,142,0)" width="1" height="83" stroke="none"/>
    </g>
    <g text-rendering="geometricPrecision" stroke-miterlimit="1.45" shape-rendering="geometricPrecision" font-family="sans-serif" transform="matrix(1,0,0,1,232,58)" stroke-linecap="butt">
      <text x="696.8461" xml:space="preserve" y="-26.2613" clip-path="url(#clipPath8)" stroke="none">&lt;&lt;class&gt;&gt;</text>
      <text x="669.973" font-size="13px" y="-2.3644" clip-path="url(#clipPath8)" stroke="none" font-weight="bold" xml:space="preserve">CachingCompiler</text>
      <path fill="none" d="M91.7815 210.3 L30.1515 210.3" clip-path="url(#clipPath2)"/>
      <path d="M98.7815 210.3 L91.7815 215.3 L84.7815 210.3 L91.7815 205.3 Z" clip-path="url(#clipPath2)" stroke="none"/>
      <path fill="none" d="M91.7815 303.3 L30.1515 303.3" clip-path="url(#clipPath2)"/>
      <path d="M98.7815 303.3 L91.7815 308.3 L84.7815 303.3 L91.7815 298.3 Z" clip-path="url(#clipPath2)" stroke="none"/>
      <path fill="none" d="M-69.85 341.8034 L-69.85 428.827" clip-path="url(#clipPath2)"/>
      <path fill="white" d="M-69.85 334.8034 L-64.85 341.8034 L-69.85 348.8034 L-74.85 341.8034 Z" clip-path="url(#clipPath2)" stroke="none"/>
      <path fill="none" d="M-69.85 334.8034 L-64.85 341.8034 L-69.85 348.8034 L-74.85 341.8034 Z" clip-path="url(#clipPath2)"/>
      <path fill="none" stroke-dasharray="6,2" d="M731.85 334.7748 L731.85 438.1505" clip-path="url(#clipPath2)"/>
      <path fill="none" d="M273.75 334.8249 L273.75 498.2733 L571.8397 498.2733" clip-path="url(#clipPath2)"/>
      <path d="M579.8397 498.2733 L567.8397 493.2733 L570.8397 498.2733 L567.8397 503.2733 Z" clip-path="url(#clipPath2)" stroke="none"/>
      <text x="368.4167" xml:space="preserve" y="482.3196" clip-path="url(#clipPath2)" stroke="none">&lt;&lt;inject&gt;&gt;</text>
      <path fill="none" d="M731.85 534.1424 L731.85 650.9969" clip-path="url(#clipPath2)"/>
      <path d="M731.85 658.9969 L736.85 646.9969 L731.85 649.9969 L726.85 646.9969 Z" clip-path="url(#clipPath2)" stroke="none"/>
      <text x="743.2701" xml:space="preserve" y="599.1347" clip-path="url(#clipPath2)" stroke="none">&lt;&lt;register&gt;&gt;</text>
      <path fill="none" d="M731.85 178.7797 L731.85 56.639" clip-path="url(#clipPath2)"/>
      <path fill="white" d="M731.85 41.639 L725.85 57.639 L737.85 57.639 Z" clip-path="url(#clipPath2)" stroke="none"/>
      <path fill="none" d="M731.85 41.639 L725.85 57.639 L737.85 57.639 Z" clip-path="url(#clipPath2)"/>
    </g>
  </g>
</svg>
