<?xml version="1.0" encoding="UTF-8"?><svg xmlns="http://www.w3.org/2000/svg" xmlns:xlink="http://www.w3.org/1999/xlink" fill-opacity="1" color-rendering="auto" color-interpolation="auto" text-rendering="auto" stroke="black" stroke-linecap="square" width="1147" stroke-miterlimit="10" shape-rendering="auto" stroke-opacity="1" fill="black" stroke-dasharray="none" font-weight="normal" stroke-width="1" height="888" font-family="'Dialog'" font-style="normal" stroke-linejoin="miter" font-size="12px" stroke-dashoffset="0" image-rendering="auto">
  <!--Generated by ySVG 2.5-->
  <defs id="genericDefs"/>
  <g>
    <defs id="defs1">
      <clipPath clipPathUnits="userSpaceOnUse" id="clipPath1">
        <path d="M0 0 L1147 0 L1147 888 L0 888 L0 0 Z"/>
      </clipPath>
      <clipPath clipPathUnits="userSpaceOnUse" id="clipPath2">
        <path d="M578 306 L1725 306 L1725 1194 L578 1194 L578 306 Z"/>
      </clipPath>
      <clipPath clipPathUnits="userSpaceOnUse" id="clipPath3">
        <path d="M1280 542 L1280 698 L1709 698 L1709 542 Z"/>
      </clipPath>
      <clipPath clipPathUnits="userSpaceOnUse" id="clipPath4">
        <path d="M861 542 L861 698 L1211 698 L1211 542 Z"/>
      </clipPath>
      <clipPath clipPathUnits="userSpaceOnUse" id="clipPath5">
        <path d="M593 542 L593 605 L793 605 L793 542 Z"/>
      </clipPath>
      <clipPath clipPathUnits="userSpaceOnUse" id="clipPath6">
        <path d="M1342 1023 L1342 1179 L1646 1179 L1646 1023 Z"/>
      </clipPath>
      <clipPath clipPathUnits="userSpaceOnUse" id="clipPath7">
        <path d="M1342 321 L1342 405 L1646 405 L1646 321 Z"/>
      </clipPath>
      <clipPath clipPathUnits="userSpaceOnUse" id="clipPath8">
        <path d="M593 635 L593 698 L793 698 L793 635 Z"/>
      </clipPath>
    </defs>
    <g fill="white" text-rendering="geometricPrecision" shape-rendering="geometricPrecision" transform="translate(-578,-306)" stroke="white">
      <rect x="578" width="1147" height="888" y="306" clip-path="url(#clipPath2)" stroke="none"/>
    </g>
    <g fill="rgb(255,204,0)" text-rendering="geometricPrecision" shape-rendering="geometricPrecision" transform="matrix(1,0,0,1,-578,-306)" stroke="rgb(255,204,0)">
      <rect x="1281" width="427" height="154" y="543" clip-path="url(#clipPath2)" stroke="none"/>
      <rect x="1280" y="542" clip-path="url(#clipPath2)" fill="yellow" width="1" height="156" stroke="none"/>
      <rect x="1281" y="542" clip-path="url(#clipPath2)" fill="yellow" width="427" height="1" stroke="none"/>
      <rect x="1281" y="697" clip-path="url(#clipPath2)" fill="rgb(178,142,0)" width="428" height="1" stroke="none"/>
      <rect x="1708" y="542" clip-path="url(#clipPath2)" fill="rgb(178,142,0)" width="1" height="155" stroke="none"/>
    </g>
    <g text-rendering="geometricPrecision" stroke-miterlimit="1.45" shape-rendering="geometricPrecision" font-family="sans-serif" transform="matrix(1,0,0,1,-578,-306)" stroke-linecap="butt">
      <text x="1459.8461" xml:space="preserve" y="558.9387" clip-path="url(#clipPath3)" stroke="none">&lt;&lt;class&gt;&gt;</text>
      <text x="1415.4249" font-size="13px" y="582.8356" clip-path="url(#clipPath3)" stroke="none" font-weight="bold" xml:space="preserve">CachingHtmlCompiler</text>
      <line stroke-linecap="square" clip-path="url(#clipPath3)" fill="none" x1="1281" x2="1708" y1="590" y2="590" stroke-miterlimit="10"/>
      <line stroke-linecap="square" clip-path="url(#clipPath3)" fill="none" x1="1281" x2="1708" y1="600" y2="600" stroke-miterlimit="10"/>
      <text x="1285.35" xml:space="preserve" y="617.0402" clip-path="url(#clipPath3)" stroke="none">constructor: (name, tagScannerFct, tagHandlerFct) =&gt; instance</text>
    </g>
    <g fill="rgb(255,204,0)" text-rendering="geometricPrecision" shape-rendering="geometricPrecision" transform="matrix(1,0,0,1,-578,-306)" stroke="rgb(255,204,0)">
      <rect x="862" width="348" height="154" y="543" clip-path="url(#clipPath2)" stroke="none"/>
      <rect x="861" y="542" clip-path="url(#clipPath2)" fill="yellow" width="1" height="156" stroke="none"/>
      <rect x="862" y="542" clip-path="url(#clipPath2)" fill="yellow" width="348" height="1" stroke="none"/>
      <rect x="862" y="697" clip-path="url(#clipPath2)" fill="rgb(178,142,0)" width="349" height="1" stroke="none"/>
      <rect x="1210" y="542" clip-path="url(#clipPath2)" fill="rgb(178,142,0)" width="1" height="155" stroke="none"/>
    </g>
    <g text-rendering="geometricPrecision" stroke-miterlimit="1.45" shape-rendering="geometricPrecision" font-family="sans-serif" transform="matrix(1,0,0,1,-578,-306)" stroke-linecap="butt">
      <text x="1001.7461" xml:space="preserve" y="558.9387" clip-path="url(#clipPath4)" stroke="none">&lt;&lt;class&gt;&gt;</text>
      <text x="975.7903" font-size="13px" y="582.8356" clip-path="url(#clipPath4)" stroke="none" font-weight="bold" xml:space="preserve">TemplatingTools</text>
      <line stroke-linecap="square" clip-path="url(#clipPath4)" fill="none" x1="862" x2="1210" y1="590" y2="590" stroke-miterlimit="10"/>
      <line stroke-linecap="square" clip-path="url(#clipPath4)" fill="none" x1="862" x2="1210" y1="600" y2="600" stroke-miterlimit="10"/>
      <text x="866.75" xml:space="preserve" y="617.0402" clip-path="url(#clipPath4)" stroke="none">scanHtmlForTags: sourceFile =&gt; [ { tag} ]</text>
      <text x="866.75" xml:space="preserve" y="631.009" clip-path="url(#clipPath4)" stroke="none">compileTagsToStaticHtml: [ {tag} ] =&gt; { results }</text>
    </g>
    <g fill="rgb(255,204,0)" text-rendering="geometricPrecision" shape-rendering="geometricPrecision" transform="matrix(1,0,0,1,-578,-306)" stroke="rgb(255,204,0)">
      <rect x="594" width="198" height="61" y="543" clip-path="url(#clipPath2)" stroke="none"/>
      <rect x="593" y="542" clip-path="url(#clipPath2)" fill="yellow" width="1" height="63" stroke="none"/>
      <rect x="594" y="542" clip-path="url(#clipPath2)" fill="yellow" width="198" height="1" stroke="none"/>
      <rect x="594" y="604" clip-path="url(#clipPath2)" fill="rgb(178,142,0)" width="199" height="1" stroke="none"/>
      <rect x="792" y="542" clip-path="url(#clipPath2)" fill="rgb(178,142,0)" width="1" height="62" stroke="none"/>
    </g>
    <g text-rendering="geometricPrecision" stroke-miterlimit="1.45" shape-rendering="geometricPrecision" font-family="sans-serif" transform="matrix(1,0,0,1,-578,-306)" stroke-linecap="butt">
      <text x="658.1461" xml:space="preserve" y="558.9387" clip-path="url(#clipPath5)" stroke="none">&lt;&lt;class&gt;&gt;</text>
      <text x="658.0538" font-size="13px" y="582.8356" clip-path="url(#clipPath5)" stroke="none" font-weight="bold" xml:space="preserve">HtmlScan</text>
    </g>
    <g fill="rgb(255,204,0)" text-rendering="geometricPrecision" shape-rendering="geometricPrecision" transform="matrix(1,0,0,1,-578,-306)" stroke="rgb(255,204,0)">
      <rect x="1343" width="302" height="154" y="1024" clip-path="url(#clipPath2)" stroke="none"/>
      <rect x="1342" y="1023" clip-path="url(#clipPath2)" fill="yellow" width="1" height="156" stroke="none"/>
      <rect x="1343" y="1023" clip-path="url(#clipPath2)" fill="yellow" width="302" height="1" stroke="none"/>
      <rect x="1343" y="1178" clip-path="url(#clipPath2)" fill="rgb(178,142,0)" width="303" height="1" stroke="none"/>
      <rect x="1645" y="1023" clip-path="url(#clipPath2)" fill="rgb(178,142,0)" width="1" height="155" stroke="none"/>
    </g>
    <g text-rendering="geometricPrecision" stroke-miterlimit="1.45" shape-rendering="geometricPrecision" font-family="sans-serif" transform="matrix(1,0,0,1,-578,-306)" stroke-linecap="butt">
      <text x="1451.5228" xml:space="preserve" y="1039.1387" clip-path="url(#clipPath6)" stroke="none">&lt;&lt;isobuild&gt;&gt;</text>
      <text x="1471.7223" font-size="13px" y="1063.0356" clip-path="url(#clipPath6)" stroke="none" font-weight="bold" xml:space="preserve">Plugin</text>
      <line stroke-linecap="square" clip-path="url(#clipPath6)" fill="none" x1="1343" x2="1645" y1="1071" y2="1071" stroke-miterlimit="10"/>
      <line stroke-linecap="square" clip-path="url(#clipPath6)" fill="none" x1="1343" x2="1645" y1="1081" y2="1081" stroke-miterlimit="10"/>
      <text x="1347.85" xml:space="preserve" y="1097.2402" clip-path="url(#clipPath6)" stroke="none">registerCompiler</text>
    </g>
    <g fill="rgb(255,204,0)" text-rendering="geometricPrecision" shape-rendering="geometricPrecision" transform="matrix(1,0,0,1,-578,-306)" stroke="rgb(255,204,0)">
      <path d="M1342.85 802.1608 L1631.85 802.1608 L1631.85 817.1608 L1646.85 817.1608 L1646.85 898.1608 L1342.85 898.1608 Z" stroke="none" clip-path="url(#clipPath2)"/>
      <path fill="white" d="M1631.85 802.1608 L1631.85 817.1608 L1646.85 817.1608 Z" clip-path="url(#clipPath2)" fill-rule="evenodd" stroke="none"/>
    </g>
    <g text-rendering="geometricPrecision" stroke-miterlimit="1.45" shape-rendering="geometricPrecision" transform="matrix(1,0,0,1,-578,-306)" stroke-linecap="butt">
      <path fill="none" d="M1342.85 802.1608 L1631.85 802.1608 L1631.85 817.1608 L1646.85 817.1608 L1646.85 898.1608 L1342.85 898.1608 Z" clip-path="url(#clipPath2)"/>
      <path fill="none" d="M1631.85 802.1608 L1631.85 817.1608 L1646.85 817.1608 Z" clip-path="url(#clipPath2)" fill-rule="evenodd"/>
      <text x="1410.2318" xml:space="preserve" y="854.3151" clip-path="url(#clipPath2)" font-family="sans-serif" stroke="none">new CachingHtmlCompiler()</text>
    </g>
    <g fill="rgb(255,204,0)" text-rendering="geometricPrecision" shape-rendering="geometricPrecision" transform="matrix(1,0,0,1,-578,-306)" stroke="rgb(255,204,0)">
      <rect x="1343" width="302" height="82" y="322" clip-path="url(#clipPath2)" stroke="none"/>
      <rect x="1342" y="321" clip-path="url(#clipPath2)" fill="yellow" width="1" height="84" stroke="none"/>
      <rect x="1343" y="321" clip-path="url(#clipPath2)" fill="yellow" width="302" height="1" stroke="none"/>
      <rect x="1343" y="404" clip-path="url(#clipPath2)" fill="rgb(178,142,0)" width="303" height="1" stroke="none"/>
      <rect x="1645" y="321" clip-path="url(#clipPath2)" fill="rgb(178,142,0)" width="1" height="83" stroke="none"/>
    </g>
    <g text-rendering="geometricPrecision" stroke-miterlimit="1.45" shape-rendering="geometricPrecision" font-family="sans-serif" transform="matrix(1,0,0,1,-578,-306)" stroke-linecap="butt">
      <text x="1459.8461" xml:space="preserve" y="337.7387" clip-path="url(#clipPath7)" stroke="none">&lt;&lt;class&gt;&gt;</text>
      <text x="1432.973" font-size="13px" y="361.6357" clip-path="url(#clipPath7)" stroke="none" font-weight="bold" xml:space="preserve">CachingCompiler</text>
    </g>
    <g fill="rgb(255,204,0)" text-rendering="geometricPrecision" shape-rendering="geometricPrecision" transform="matrix(1,0,0,1,-578,-306)" stroke="rgb(255,204,0)">
      <rect x="594" width="198" height="61" y="636" clip-path="url(#clipPath2)" stroke="none"/>
      <rect x="593" y="635" clip-path="url(#clipPath2)" fill="yellow" width="1" height="63" stroke="none"/>
      <rect x="594" y="635" clip-path="url(#clipPath2)" fill="yellow" width="198" height="1" stroke="none"/>
      <rect x="594" y="697" clip-path="url(#clipPath2)" fill="rgb(178,142,0)" width="199" height="1" stroke="none"/>
      <rect x="792" y="635" clip-path="url(#clipPath2)" fill="rgb(178,142,0)" width="1" height="62" stroke="none"/>
    </g>
    <g text-rendering="geometricPrecision" stroke-miterlimit="1.45" shape-rendering="geometricPrecision" font-family="sans-serif" transform="matrix(1,0,0,1,-578,-306)" stroke-linecap="butt">
      <text x="658.1461" xml:space="preserve" y="651.9387" clip-path="url(#clipPath8)" stroke="none">&lt;&lt;class&gt;&gt;</text>
      <text x="611.8175" font-size="13px" y="675.8356" clip-path="url(#clipPath8)" stroke="none" font-weight="bold" xml:space="preserve">StaticHtmlTagHandler</text>
      <path fill="none" d="M854.7816 574.3 L793.1515 574.3" clip-path="url(#clipPath2)"/>
      <path d="M861.7816 574.3 L854.7816 579.3 L847.7816 574.3 L854.7816 569.3 Z" clip-path="url(#clipPath2)" stroke="none"/>
      <path fill="none" stroke-dasharray="6,2" d="M1494.85 698.7748 L1494.85 802.1505" clip-path="url(#clipPath2)"/>
      <path fill="none" d="M1036.75 698.8249 L1036.75 862.2733 L1334.8397 862.2733" clip-path="url(#clipPath2)"/>
      <path d="M1342.8397 862.2733 L1330.8397 857.2733 L1333.8397 862.2733 L1330.8397 867.2733 Z" clip-path="url(#clipPath2)" stroke="none"/>
      <text x="1131.4167" xml:space="preserve" y="846.3196" clip-path="url(#clipPath2)" stroke="none">&lt;&lt;inject&gt;&gt;</text>
      <path fill="none" d="M1494.85 898.1424 L1494.85 1014.9969" clip-path="url(#clipPath2)"/>
      <path d="M1494.85 1022.9969 L1499.85 1010.9969 L1494.85 1013.9969 L1489.85 1010.9969 Z" clip-path="url(#clipPath2)" stroke="none"/>
      <text x="1506.2701" xml:space="preserve" y="963.1347" clip-path="url(#clipPath2)" stroke="none">&lt;&lt;register&gt;&gt;</text>
      <path fill="none" d="M1494.85 542.7797 L1494.85 420.639" clip-path="url(#clipPath2)"/>
      <path fill="white" d="M1494.85 405.639 L1488.85 421.639 L1500.85 421.639 Z" clip-path="url(#clipPath2)" stroke="none"/>
      <path fill="none" d="M1494.85 405.639 L1488.85 421.639 L1500.85 421.639 Z" clip-path="url(#clipPath2)"/>
      <path fill="none" d="M854.7816 667.3 L793.1515 667.3" clip-path="url(#clipPath2)"/>
      <path d="M861.7816 667.3 L854.7816 672.3 L847.7816 667.3 L854.7816 662.3 Z" clip-path="url(#clipPath2)" stroke="none"/>
    </g>
  </g>
</svg>
