<?xml version="1.0" encoding="utf-8"?>
<!-- Generator: Adobe Illustrator 19.2.1, SVG Export Plug-In . SVG Version: 6.00 Build 0)  -->
<svg version="1.1" id="Camada_1" xmlns="http://www.w3.org/2000/svg" xmlns:xlink="http://www.w3.org/1999/xlink" x="0px" y="0px"
	 viewBox="0 0 3000 735.4" style="enable-background:new 0 0 3000 735.4;" xml:space="preserve">
<style type="text/css">
	.st0{fill:#FFFFFF;stroke:#808080;stroke-miterlimit:10;}
	.st1{fill:#2D2D2D;}
	.st2{font-family:'SourceSansPro-Regular';}
	.st3{font-size:36.2567px;}
	.st4{fill:url(#SVGID_1_);}
	.st5{fill:#373739;}
	.st6{fill:#F37425;}
	.st7{fill:#FEDC00;}
	.st8{fill:url(#SVGID_2_);}
	.st9{fill:url(#SVGID_3_);}
	.st10{fill:url(#SVGID_4_);}
	.st11{fill:#FFFFFF;}
</style>
<rect x="32" y="20" class="st0" width="698.4" height="698.4"/>
<text transform="matrix(1 0 0 1 267.6774 92.2979)" class="st1 st2 st3">BASIC VERSION</text>
<rect x="742.7" y="18.5" class="st0" width="698.4" height="698.4"/>
<text transform="matrix(1 0 0 1 962.1326 90.7833)" class="st1 st2 st3">BLACK VERSION</text>
<rect x="1454.4" y="19.5" class="st0" width="698.4" height="698.4"/>
<text transform="matrix(1 0 0 1 1704.1689 91.7833)" class="st1 st2 st3">HORIZONTAL</text>
<rect x="2164.1" y="20.6" class="st0" width="698.4" height="698.4"/>
<text transform="matrix(1 0 0 1 2466.1848 92.9157)" class="st1 st2 st3">ICONS</text>
<linearGradient id="SVGID_1_" gradientUnits="userSpaceOnUse" x1="2352.9946" y1="291.7328" x2="2352.9946" y2="530.9704">
	<stop  offset="0" style="stop-color:#F37425"/>
	<stop  offset="1" style="stop-color:#F3BB25"/>
</linearGradient>
<path class="st4" d="M2353,531L2353,531c-65.8,0-119.6-53.8-119.6-119.6v0c0-65.8,53.8-119.6,119.6-119.6h0
	c65.8,0,119.6,53.8,119.6,119.6v0C2472.6,477.1,2418.8,531,2353,531z"/>
<path class="st5" d="M2662.8,531L2662.8,531c-65.8,0-119.6-53.8-119.6-119.6v0c0-65.8,53.8-119.6,119.6-119.6h0
	c65.8,0,119.6,53.8,119.6,119.6v0C2782.4,477.1,2728.6,531,2662.8,531z"/>
<rect x="2918" y="11" class="st5" width="51" height="232.1"/>
<rect x="2918" y="228" class="st6" width="51" height="253.6"/>
<rect x="2918" y="461.1" class="st7" width="51" height="253.8"/>
<g>
	<g>
		
			<linearGradient id="SVGID_2_" gradientUnits="userSpaceOnUse" x1="562.8608" y1="-340.9893" x2="577.3423" y2="7.5815" gradientTransform="matrix(0.8877 -0.4604 0.4604 0.8877 -18.3554 786.674)">
			<stop  offset="0" style="stop-color:#F37425"/>
			<stop  offset="1" style="stop-color:#F3BB25"/>
		</linearGradient>
		<path class="st8" d="M392.8,264c-62.7-23.9-87.6-58.2-83.3-83.1c0,0-77.9,98.8,37.5,176.7c19.7,13.2,56.4,21.8,65.9,73.5
			C412.9,431.1,520.5,325.5,392.8,264z"/>
		<path class="st7" d="M401.8,434c-2.5-10.2-2.8-35-52.8-59.2c-26.7-12.9-61.1-53.5-61.5-67.2c0,0-12.4,101,69.4,115.9
			C405.4,432.3,401.8,434,401.8,434z"/>
	</g>
	<g>
		<g>
			<path class="st7" d="M493.7,317.2c3.1,16.8,2.8,33.6-0.9,50.1c-3.5,15.9-10,30.9-19.3,44.3c-9.3,13.5-20.9,24.9-34.6,33.9
				c-14.1,9.3-29.8,15.6-46.5,18.6c-16.8,3.1-33.6,2.8-50.1-0.9c-15.9-3.5-30.9-10-44.3-19.3c-13.5-9.3-24.9-20.9-33.9-34.6
				c-9.3-14.1-15.6-29.8-18.6-46.5c-3.1-16.8-2.8-33.7,0.9-50.2c3-13.4,8.4-26.6,16-39.2c1.7-2.8,5.5-3.6,8.2-1.8l0.2,0.2
				c2.6,1.8,3.4,5.3,1.7,8c-7,11.5-11.8,23.2-14.5,35.5c-3.3,14.9-3.6,30.2-0.8,45.4c2.8,15.2,8.5,29.3,16.9,42.1
				c8.1,12.3,18.4,22.9,30.6,31.3c12.2,8.4,25.7,14.3,40.1,17.5c14.9,3.3,30.2,3.6,45.3,0.8c15.2-2.8,29.3-8.5,42.1-16.9
				c12.3-8.1,22.9-18.4,31.3-30.6c8.4-12.2,14.3-25.7,17.5-40.1c3.3-14.9,3.6-30.2,0.8-45.3c-2.8-15.2-8.5-29.3-16.9-42.1
				c-8.1-12.3-18.4-22.9-30.6-31.3c-12.2-8.4-25.7-14.3-40.1-17.5c-13.1-2.9-26.7-3.4-39.8-1.7c-3.1,0.4-6-1.6-6.6-4.7l-0.1-0.3
				c-0.6-3.3,1.7-6.4,5-6.9c14.9-2,29.4-1.3,44,1.9c15.9,3.5,30.8,10,44.4,19.4c13.5,9.3,24.9,20.9,33.9,34.6
				C484.4,284.8,490.6,300.5,493.7,317.2z"/>
		</g>
	</g>
	<g>
		<path class="st5" d="M132.3,515.4h36.9c21.5,0,38.8,5.4,38.8,25.6c0,8.8-5,18.9-12.9,22.1v0.6c9.8,2.8,17.7,10.4,17.7,24
			c0,21.1-18.3,30.3-40.4,30.3h-40.1V515.4z M168.6,555.4c8.8,0,12.9-4.1,12.9-10.4s-4.1-8.8-12.9-8.8h-9.2v19.2H168.6z
			 M170.5,597.1c10.7,0,15.8-3.8,15.8-11.4c0-7.6-5-10.4-15.8-10.4h-11v21.8H170.5z"/>
		<path class="st5" d="M241.5,515.4h27.1v79.8h38.8v22.7h-65.9V515.4z"/>
		<path class="st5" d="M354.4,515.4h32.8l31.2,102.6h-28.7l-9.9-42.8l-23.8,21l-5,21.8h-27.8L354.4,515.4z M360.9,575.2h18.9
			l-1.7-7.1c-2.5-9.8-5-22.2-7.6-32.5h-0.6c-2.2,10.4-4.7,22.7-7.3,32.5L360.9,575.2z"/>
		<path class="st5" d="M434.6,601.5l42-63.4h-37.9v-22.7H510v16.4l-42,63.4h42.3v22.7h-75.7V601.5z"/>
		<path class="st5" d="M539,515.4h66.3v22.7h-39.1v16.1h33.4v22.7h-33.4v18.3h40.7v22.7H539V515.4z"/>
	</g>
</g>
<g>
	<g>
		<path class="st5" d="M1111.7,266.4c-62.7-23.9-87.6-58.2-83.3-83.1c0,0-77.9,98.8,37.5,176.7c19.7,13.2,56.4,21.8,65.9,73.5
			C1131.8,433.5,1239.3,327.9,1111.7,266.4z"/>
		<path class="st5" d="M1120.6,436.4c-2.5-10.2-2.8-35-52.8-59.2c-26.7-12.9-61.1-53.5-61.5-67.2c0,0-12.4,101,69.4,115.9
			C1124.3,434.7,1120.6,436.4,1120.6,436.4z"/>
	</g>
	<g>
		<g>
			<path class="st5" d="M1212.5,319.6c3.1,16.8,2.8,33.6-0.9,50.1c-3.5,15.9-10,30.9-19.3,44.3c-9.3,13.5-20.9,24.9-34.6,33.9
				c-14.1,9.3-29.8,15.6-46.5,18.6c-16.8,3.1-33.6,2.8-50.1-0.9c-15.9-3.5-30.9-10-44.3-19.3c-13.5-9.3-24.9-20.9-33.9-34.6
				c-9.3-14.1-15.6-29.8-18.6-46.5c-3.1-16.8-2.8-33.7,0.9-50.2c3-13.4,8.4-26.6,16-39.2c1.7-2.8,5.5-3.6,8.2-1.8l0.2,0.2
				c2.6,1.8,3.4,5.3,1.7,8c-7,11.5-11.8,23.2-14.5,35.5c-3.3,14.9-3.6,30.2-0.8,45.4c2.8,15.2,8.5,29.3,16.9,42.1
				c8.1,12.3,18.4,22.9,30.6,31.3s25.7,14.3,40.1,17.5c14.9,3.3,30.2,3.6,45.3,0.8s29.3-8.5,42.1-16.9c12.3-8.1,22.9-18.4,31.3-30.6
				c8.4-12.2,14.3-25.7,17.5-40.1c3.3-14.9,3.6-30.2,0.8-45.3c-2.8-15.2-8.5-29.3-16.9-42.1c-8.1-12.3-18.4-22.9-30.6-31.3
				c-12.2-8.4-25.7-14.3-40.1-17.5c-13.1-2.9-26.7-3.4-39.8-1.7c-3.1,0.4-6-1.6-6.6-4.7l-0.1-0.3c-0.6-3.3,1.7-6.4,5-6.9
				c14.9-2,29.4-1.3,44,1.9c15.9,3.5,30.8,10,44.4,19.4c13.5,9.3,24.9,20.9,33.9,34.6C1203.2,287.2,1209.5,302.9,1212.5,319.6z"/>
		</g>
	</g>
	<g>
		<path class="st5" d="M851.1,517.8H888c21.5,0,38.8,5.4,38.8,25.6c0,8.8-5,18.9-12.9,22.1v0.6c9.8,2.8,17.7,10.4,17.7,24
			c0,21.1-18.3,30.3-40.4,30.3h-40.1V517.8z M887.4,557.8c8.8,0,12.9-4.1,12.9-10.4s-4.1-8.8-12.9-8.8h-9.2v19.2H887.4z
			 M889.3,599.5c10.7,0,15.8-3.8,15.8-11.4c0-7.6-5-10.4-15.8-10.4h-11v21.8H889.3z"/>
		<path class="st5" d="M960.3,517.8h27.1v79.8h38.8v22.7h-65.9V517.8z"/>
		<path class="st5" d="M1073.3,517.8h32.8l31.2,102.6h-28.7l-9.9-42.8l-23.8,21l-5,21.8H1042L1073.3,517.8z M1079.7,577.6h18.9
			l-1.7-7.1c-2.5-9.8-5-22.2-7.6-32.5h-0.6c-2.2,10.4-4.7,22.7-7.3,32.5L1079.7,577.6z"/>
		<path class="st5" d="M1153.4,603.9l42-63.4h-37.9v-22.7h71.3v16.4l-42,63.4h42.3v22.7h-75.7V603.9z"/>
		<path class="st5" d="M1257.8,517.8h66.3v22.7H1285v16.1h33.4v22.7H1285v18.3h40.7v22.7h-67.8V517.8z"/>
	</g>
</g>
<g>
	<g>
		
			<linearGradient id="SVGID_3_" gradientUnits="userSpaceOnUse" x1="1674.0083" y1="246.6228" x2="1682.3406" y2="447.1819" gradientTransform="matrix(0.8877 -0.4604 0.4604 0.8877 -18.3554 786.674)">
			<stop  offset="0" style="stop-color:#F37425"/>
			<stop  offset="1" style="stop-color:#F3BB25"/>
		</linearGradient>
		<path class="st9" d="M1620.7,257.4c-36.1-13.8-50.4-33.5-47.9-47.8c0,0-44.8,56.9,21.6,101.7c11.3,7.6,32.4,12.6,37.9,42.3
			C1632.2,353.6,1694.1,292.8,1620.7,257.4z"/>
		<path class="st7" d="M1625.8,355.2c-1.4-5.9-1.6-20.2-30.4-34.1c-15.3-7.4-35.2-30.8-35.4-38.7c0,0-7.2,58.1,39.9,66.7
			C1627.9,354.3,1625.8,355.2,1625.8,355.2z"/>
	</g>
	<g>
		<g>
			<path class="st7" d="M1678.7,288.1c1.8,9.6,1.6,19.3-0.5,28.8c-2,9.2-5.8,17.8-11.1,25.5c-5.4,7.8-12,14.3-19.9,19.5
				c-8.1,5.3-17.1,9-26.8,10.7c-9.6,1.8-19.3,1.6-28.8-0.5c-9.2-2-17.8-5.8-25.5-11.1c-7.8-5.4-14.3-12-19.5-19.9
				c-5.3-8.1-9-17.1-10.7-26.8c-1.8-9.7-1.6-19.4,0.5-28.9c1.7-7.7,4.8-15.3,9.2-22.6c1-1.6,3.1-2.1,4.7-1l0.1,0.1
				c1.5,1,1.9,3,1,4.6c-4,6.6-6.8,13.4-8.3,20.4c-1.9,8.6-2.1,17.4-0.4,26.1c1.6,8.7,4.9,16.9,9.7,24.2c4.7,7.1,10.6,13.2,17.6,18
				c7,4.8,14.8,8.2,23.1,10.1c8.6,1.9,17.4,2.1,26.1,0.5c8.7-1.6,16.9-4.9,24.2-9.7c7.1-4.7,13.2-10.6,18-17.6
				c4.8-7,8.2-14.8,10.1-23.1c1.9-8.6,2.1-17.4,0.5-26.1c-1.6-8.7-4.9-16.9-9.7-24.2c-4.7-7.1-10.6-13.2-17.6-18
				c-7-4.9-14.8-8.2-23.1-10.1c-7.5-1.7-15.4-2-22.9-1c-1.8,0.2-3.5-0.9-3.8-2.7l0-0.2c-0.3-1.9,1-3.7,2.9-4
				c8.6-1.2,16.9-0.8,25.3,1.1c9.2,2,17.7,5.8,25.5,11.1c7.8,5.4,14.3,12,19.5,19.9C1673.3,269.4,1676.9,278.4,1678.7,288.1z"/>
		</g>
	</g>
</g>
<g>
	<path class="st5" d="M1714.2,252.3h28.4c16.5,0,29.8,4.1,29.8,19.6c0,6.8-3.9,14.6-9.9,17v0.5c7.5,2.2,13.6,8,13.6,18.4
		c0,16.2-14.1,23.3-31,23.3h-30.8V252.3z M1742.1,283.1c6.8,0,9.9-3.2,9.9-8c0-4.9-3.2-6.8-9.9-6.8h-7v14.8H1742.1z M1743.6,315.1
		c8.2,0,12.1-2.9,12.1-8.7c0-5.8-3.9-8-12.1-8h-8.5v16.7H1743.6z"/>
	<path class="st5" d="M1798.1,252.3h20.9v61.4h29.8v17.5h-50.7V252.3z"/>
	<path class="st5" d="M1885,252.3h25.2l24,78.8h-22.1l-7.6-32.9l-18.3,16.1l-3.9,16.7H1861L1885,252.3z M1889.9,298.3h14.6l-1.3-5.5
		c-1.9-7.5-3.9-17.1-5.8-25h-0.5c-1.7,8-3.6,17.5-5.6,25L1889.9,298.3z"/>
	<path class="st5" d="M1946.6,318.5l32.3-48.7h-29.1v-17.5h54.8v12.6l-32.3,48.7h32.5v17.5h-58.2V318.5z"/>
	<path class="st5" d="M2026.8,252.3h50.9v17.5h-30.1v12.4h25.7v17.5h-25.7v14.1h31.3v17.5h-52.1V252.3z"/>
</g>
<g>
	<g>
		<path class="st5" d="M1625.7,482.4c-36.1-13.8-50.4-33.5-47.9-47.8c0,0-44.8,56.9,21.6,101.7c11.3,7.6,32.4,12.6,37.9,42.3
			C1637.2,578.6,1699.1,517.8,1625.7,482.4z"/>
		<path class="st5" d="M1630.8,580.2c-1.4-5.9-1.6-20.2-30.4-34.1c-15.3-7.4-35.2-30.8-35.4-38.7c0,0-7.2,58.1,39.9,66.7
			C1632.9,579.3,1630.8,580.2,1630.8,580.2z"/>
	</g>
	<g>
		<g>
			<path class="st5" d="M1683.7,513.1c1.8,9.6,1.6,19.3-0.5,28.8c-2,9.2-5.8,17.8-11.1,25.5c-5.4,7.8-12,14.3-19.9,19.5
				c-8.1,5.3-17.1,9-26.8,10.7c-9.6,1.8-19.3,1.6-28.8-0.5c-9.2-2-17.8-5.8-25.5-11.1c-7.8-5.4-14.3-12-19.5-19.9
				c-5.3-8.1-9-17.1-10.7-26.8c-1.8-9.7-1.6-19.4,0.5-28.9c1.7-7.7,4.8-15.3,9.2-22.6c1-1.6,3.1-2.1,4.7-1l0.1,0.1
				c1.5,1,1.9,3,1,4.6c-4,6.6-6.8,13.4-8.3,20.4c-1.9,8.6-2.1,17.4-0.4,26.1c1.6,8.7,4.9,16.9,9.7,24.2c4.7,7.1,10.6,13.2,17.6,18
				s14.8,8.2,23.1,10.1c8.6,1.9,17.4,2.1,26.1,0.5c8.7-1.6,16.9-4.9,24.2-9.7c7.1-4.7,13.2-10.6,18-17.6c4.8-7,8.2-14.8,10.1-23.1
				c1.9-8.6,2.1-17.4,0.5-26.1c-1.6-8.7-4.9-16.9-9.7-24.2c-4.7-7.1-10.6-13.2-17.6-18c-7-4.9-14.8-8.2-23.1-10.1
				c-7.5-1.7-15.4-2-22.9-1c-1.8,0.2-3.5-0.9-3.8-2.7l0-0.2c-0.3-1.9,1-3.7,2.9-4c8.6-1.2,16.9-0.8,25.3,1.1
				c9.2,2,17.7,5.8,25.5,11.1c7.8,5.4,14.3,12,19.5,19.9C1678.3,494.4,1681.9,503.4,1683.7,513.1z"/>
		</g>
	</g>
</g>
<g>
	<path class="st5" d="M1719.2,477.3h28.4c16.5,0,29.8,4.1,29.8,19.6c0,6.8-3.9,14.6-9.9,17v0.5c7.5,2.2,13.6,8,13.6,18.4
		c0,16.2-14.1,23.3-31,23.3h-30.8V477.3z M1747.1,508.1c6.8,0,9.9-3.2,9.9-8c0-4.9-3.2-6.8-9.9-6.8h-7v14.8H1747.1z M1748.6,540.1
		c8.2,0,12.1-2.9,12.1-8.7c0-5.8-3.9-8-12.1-8h-8.5v16.7H1748.6z"/>
	<path class="st5" d="M1803.1,477.3h20.9v61.4h29.8v17.5h-50.7V477.3z"/>
	<path class="st5" d="M1890,477.3h25.2l24,78.8h-22.1l-7.6-32.9l-18.3,16.1l-3.9,16.7H1866L1890,477.3z M1894.9,523.3h14.6l-1.3-5.5
		c-1.9-7.5-3.9-17.1-5.8-25h-0.5c-1.7,8-3.6,17.5-5.6,25L1894.9,523.3z"/>
	<path class="st5" d="M1951.6,543.5l32.3-48.7h-29.1v-17.5h54.8v12.6l-32.3,48.7h32.5v17.5h-58.2V543.5z"/>
	<path class="st5" d="M2031.8,477.3h50.9v17.5h-30.1v12.4h25.7v17.5h-25.7v14.1h31.3v17.5h-52.1V477.3z"/>
</g>
<g>
	<g>
		
			<linearGradient id="SVGID_4_" gradientUnits="userSpaceOnUse" x1="2555.9602" y1="838.7733" x2="2564.2925" y2="1039.3324" gradientTransform="matrix(0.8877 -0.4604 0.4604 0.8877 -18.3554 786.674)">
			<stop  offset="0" style="stop-color:#F37425"/>
			<stop  offset="1" style="stop-color:#F3BB25"/>
		</linearGradient>
		<path class="st10" d="M2676.2,377.1c-36.1-13.8-50.4-33.5-47.9-47.8c0,0-44.8,56.9,21.6,101.7c11.3,7.6,32.4,12.6,37.9,42.3
			C2687.8,473.2,2749.7,412.4,2676.2,377.1z"/>
		<path class="st7" d="M2681.4,474.9c-1.4-5.9-1.6-20.2-30.4-34.1c-15.3-7.4-35.2-30.8-35.4-38.7c0,0-7.2,58.1,39.9,66.7
			C2683.4,473.9,2681.4,474.9,2681.4,474.9z"/>
	</g>
	<g>
		<g>
			<path class="st7" d="M2734.2,407.7c1.8,9.6,1.6,19.3-0.5,28.8c-2,9.2-5.8,17.8-11.1,25.5c-5.4,7.8-12,14.3-19.9,19.5
				c-8.1,5.3-17.1,9-26.8,10.7c-9.6,1.8-19.3,1.6-28.8-0.5c-9.2-2-17.8-5.8-25.5-11.1c-7.8-5.4-14.3-12-19.5-19.9
				c-5.3-8.1-9-17.1-10.7-26.8c-1.8-9.7-1.6-19.4,0.5-28.9c1.7-7.7,4.8-15.3,9.2-22.6c1-1.6,3.1-2.1,4.7-1l0.1,0.1
				c1.5,1,1.9,3,1,4.6c-4,6.6-6.8,13.4-8.3,20.4c-1.9,8.6-2.1,17.4-0.4,26.1c1.6,8.7,4.9,16.9,9.7,24.2c4.7,7.1,10.6,13.2,17.6,18
				c7,4.8,14.8,8.2,23.1,10.1c8.6,1.9,17.4,2.1,26.1,0.5c8.7-1.6,16.9-4.9,24.2-9.7c7.1-4.7,13.2-10.6,18-17.6
				c4.8-7,8.2-14.8,10.1-23.1c1.9-8.6,2.1-17.4,0.5-26.1c-1.6-8.7-4.9-16.9-9.7-24.2c-4.7-7.1-10.6-13.2-17.6-18
				c-7-4.9-14.8-8.2-23.1-10.1c-7.5-1.7-15.4-2-22.9-1c-1.8,0.2-3.5-0.9-3.8-2.7l0-0.2c-0.4-1.9,1-3.7,2.9-4
				c8.6-1.2,16.9-0.8,25.3,1.1c9.2,2,17.7,5.8,25.5,11.1c7.8,5.4,14.3,12,19.5,19.9C2728.9,389,2732.5,398.1,2734.2,407.7z"/>
		</g>
	</g>
</g>
<g>
	<g>
		<path class="st11" d="M2366.4,377.1c-36.1-13.8-50.4-33.5-47.9-47.8c0,0-44.8,56.9,21.6,101.7c11.3,7.6,32.4,12.6,37.9,42.3
			C2378,473.2,2439.8,412.4,2366.4,377.1z"/>
		<path class="st11" d="M2371.5,474.9c-1.4-5.9-1.6-20.2-30.4-34.1c-15.3-7.4-35.2-30.8-35.4-38.7c0,0-7.2,58.1,39.9,66.7
			C2373.6,473.9,2371.5,474.9,2371.5,474.9z"/>
	</g>
	<g>
		<g>
			<path class="st11" d="M2424.4,407.7c1.8,9.6,1.6,19.3-0.5,28.8c-2,9.2-5.8,17.8-11.1,25.5c-5.4,7.8-12,14.3-19.9,19.5
				c-8.1,5.3-17.1,9-26.8,10.7c-9.6,1.8-19.3,1.6-28.8-0.5c-9.2-2-17.8-5.8-25.5-11.1c-7.8-5.4-14.3-12-19.5-19.9
				c-5.3-8.1-9-17.1-10.7-26.8c-1.8-9.7-1.6-19.4,0.5-28.9c1.7-7.7,4.8-15.3,9.2-22.6c1-1.6,3.1-2.1,4.7-1l0.1,0.1
				c1.5,1,1.9,3,1,4.6c-4,6.6-6.8,13.4-8.3,20.4c-1.9,8.6-2.1,17.4-0.4,26.1c1.6,8.7,4.9,16.9,9.7,24.2c4.7,7.1,10.6,13.2,17.6,18
				c7,4.8,14.8,8.2,23.1,10.1c8.6,1.9,17.4,2.1,26.1,0.5c8.7-1.6,16.9-4.9,24.2-9.7c7.1-4.7,13.2-10.6,18-17.6
				c4.8-7,8.2-14.8,10.1-23.1c1.9-8.6,2.1-17.4,0.5-26.1c-1.6-8.7-4.9-16.9-9.7-24.2c-4.7-7.1-10.6-13.2-17.6-18
				c-7-4.9-14.8-8.2-23.1-10.1c-7.5-1.7-15.4-2-22.9-1c-1.8,0.2-3.5-0.9-3.8-2.7l0-0.2c-0.4-1.9,1-3.7,2.9-4
				c8.6-1.2,16.9-0.8,25.3,1.1c9.2,2,17.7,5.8,25.5,11.1c7.8,5.4,14.3,12,19.5,19.9C2419,389,2422.7,398.1,2424.4,407.7z"/>
		</g>
	</g>
</g>
</svg>
