<?xml version="1.0" encoding="utf-8"?>
<!-- Generator: Adobe Illustrator 19.2.1, SVG Export Plug-In . SVG Version: 6.00 Build 0)  -->
<svg version="1.1" id="Camada_1" xmlns="http://www.w3.org/2000/svg" xmlns:xlink="http://www.w3.org/1999/xlink" x="0px" y="0px"
	 viewBox="0 0 1000 928.9" style="enable-background:new 0 0 1000 928.9;" xml:space="preserve">
<style type="text/css">
	.st0{fill:url(#SVGID_1_);}
	.st1{fill:#FEDC00;}
	.st2{fill:#373739;}
</style>
<g>
	<g>
		
			<linearGradient id="SVGID_1_" gradientUnits="userSpaceOnUse" x1="533.1668" y1="38.5903" x2="562.7632" y2="750.9765" gradientTransform="matrix(0.8877 -0.4604 0.4604 0.8877 -84.6 315.0546)">
			<stop  offset="0" style="stop-color:#F37425"/>
			<stop  offset="1" style="stop-color:#F3BB25"/>
		</linearGradient>
		<path class="st0" d="M546.5,183.9C418.4,135,367.6,65,376.2,14c0,0-159.1,202,76.6,361.1C493,402,568.1,419.7,587.6,525.3
			C587.6,525.3,807.4,309.5,546.5,183.9z"/>
		<path class="st1" d="M564.8,531.3c-5-20.9-5.8-71.6-107.8-121C402.5,383.9,332,301,331.3,272.9c0,0-25.4,206.5,141.7,236.8
			C572.2,527.9,564.8,531.3,564.8,531.3z"/>
	</g>
	<g>
		<g>
			<path class="st1" d="M752.7,292.7c6.3,34.2,5.7,68.7-1.8,102.4c-7.2,32.6-20.5,63.1-39.5,90.6c-19,27.6-42.8,50.9-70.6,69.2
				c-28.9,19-60.8,31.8-95.1,38.1c-34.2,6.3-68.7,5.7-102.4-1.8c-32.6-7.2-63.1-20.5-90.6-39.5c-27.6-19-50.9-42.8-69.2-70.6
				c-19-28.9-31.8-60.8-38.1-95.1c-6.3-34.3-5.7-68.9,1.8-102.6c6.1-27.4,17.1-54.3,32.8-80.2c3.5-5.8,11.2-7.4,16.8-3.7l0.5,0.3
				c5.4,3.6,6.9,10.8,3.6,16.3c-14.3,23.6-24.1,47.4-29.6,72.5c-6.8,30.5-7.3,61.7-1.6,92.8c5.7,31,17.3,59.9,34.5,86
				c16.6,25.2,37.7,46.7,62.6,63.9c25,17.2,52.6,29.2,82,35.8c30.5,6.8,61.7,7.3,92.7,1.6c31-5.7,59.9-17.3,86-34.5
				c25.2-16.6,46.7-37.7,63.9-62.6c17.2-25,29.2-52.6,35.8-82c6.8-30.5,7.3-61.7,1.6-92.7c-5.7-31-17.3-59.9-34.5-86
				c-16.6-25.2-37.7-46.7-62.6-63.9c-25-17.2-52.6-29.3-82-35.8c-26.8-5.9-54.5-7-81.3-3.5c-6.4,0.8-12.3-3.4-13.5-9.7l-0.1-0.6
				c-1.2-6.8,3.5-13.1,10.3-14.1c30.4-4.1,60.2-2.8,90,3.9c32.5,7.2,63,20.5,90.6,39.6c27.6,19,50.9,42.8,69.2,70.7
				C733.5,226.5,746.4,258.5,752.7,292.7z"/>
		</g>
	</g>
	<g>
		<path class="st2" d="M14,697.6h75.5c43.9,0,79.3,11,79.3,52.2c0,18.1-10.3,38.7-26.4,45.1v1.3c20,5.8,36.1,21.3,36.1,49
			c0,43.2-37.4,61.9-82.5,61.9H14V697.6z M88.2,779.5c18.1,0,26.4-8.4,26.4-21.3s-8.4-18.1-26.4-18.1H69.5v39.3H88.2z M92,864.6
			c21.9,0,32.2-7.7,32.2-23.2c0-15.5-10.3-21.3-32.2-21.3H69.5v44.5H92z"/>
		<path class="st2" d="M237.1,697.6h55.5v163.2h79.3v46.4H237.1V697.6z"/>
		<path class="st2" d="M468,697.6H535l63.8,209.6h-58.7l-20.3-87.4l-48.7,42.9l-10.3,44.5h-56.7L468,697.6z M481.2,819.8h38.7
			l-3.5-14.5c-5.2-20-10.3-45.5-15.5-66.4h-1.3c-4.5,21.3-9.7,46.4-14.8,66.4L481.2,819.8z"/>
		<path class="st2" d="M631.8,873.7L717.5,744h-77.4v-46.4h145.7v33.5l-85.8,129.6h86.4v46.4H631.8V873.7z"/>
		<path class="st2" d="M845.2,697.6h135.4V744h-80v32.9H969v46.4h-68.4v37.4h83.2v46.4H845.2V697.6z"/>
	</g>
</g>
</svg>
