<?xml version="1.0" encoding="utf-8"?>
<!-- Generator: Adobe Illustrator 19.2.1, SVG Export Plug-In . SVG Version: 6.00 Build 0)  -->
<svg version="1.1" id="Camada_1" xmlns="http://www.w3.org/2000/svg" xmlns:xlink="http://www.w3.org/1999/xlink" x="0px" y="0px"
	 viewBox="0 0 558 177" style="enable-background:new 0 0 558 177;" xml:space="preserve">
<style type="text/css">
	.st0{fill:url(#SVGID_1_);}
	.st1{fill:#FEDC00;}
	.st2{fill:#373739;}
</style>
<g>
	<g>
		
			<linearGradient id="SVGID_1_" gradientUnits="userSpaceOnUse" x1="56.5073" y1="-187.3592" x2="64.8396" y2="13.1999" gradientTransform="matrix(0.8877 -0.4604 0.4604 0.8877 88.328 224.102)">
			<stop  offset="0" style="stop-color:#F37425"/>
			<stop  offset="1" style="stop-color:#F3BB25"/>
		</linearGradient>
		<path class="st0" d="M91.7,54.3C55.6,40.5,41.3,20.8,43.7,6.5c0,0-44.8,56.9,21.6,101.7c11.3,7.6,32.4,12.6,37.9,42.3
			C103.2,150.4,165.1,89.7,91.7,54.3z"/>
		<path class="st1" d="M96.8,152.1c-1.4-5.9-1.6-20.2-30.4-34.1c-15.3-7.4-35.2-30.8-35.4-38.7c0,0-7.2,58.1,39.9,66.7
			C98.9,151.2,96.8,152.1,96.8,152.1z"/>
	</g>
	<g>
		<g>
			<path class="st1" d="M149.7,84.9c1.8,9.6,1.6,19.3-0.5,28.8c-2,9.2-5.8,17.8-11.1,25.5c-5.4,7.8-12,14.3-19.9,19.5
				c-8.1,5.3-17.1,9-26.8,10.7c-9.6,1.8-19.3,1.6-28.8-0.5c-9.2-2-17.8-5.8-25.5-11.1c-7.8-5.4-14.3-12-19.5-19.9
				c-5.3-8.1-9-17.1-10.7-26.8c-1.8-9.7-1.6-19.4,0.5-28.9C9,74.6,12.1,67,16.6,59.8c1-1.6,3.1-2.1,4.7-1l0.1,0.1c1.5,1,1.9,3,1,4.6
				c-4,6.6-6.8,13.4-8.3,20.4c-1.9,8.6-2.1,17.4-0.4,26.1c1.6,8.7,4.9,16.9,9.7,24.2c4.7,7.1,10.6,13.2,17.6,18
				c7,4.8,14.8,8.2,23.1,10.1c8.6,1.9,17.4,2.1,26.1,0.5s16.9-4.9,24.2-9.7c7.1-4.7,13.2-10.6,18-17.6c4.8-7,8.2-14.8,10.1-23.1
				c1.9-8.6,2.1-17.4,0.5-26.1c-1.6-8.7-4.9-16.9-9.7-24.2c-4.7-7.1-10.6-13.2-17.6-18c-7-4.9-14.8-8.2-23.1-10.1
				c-7.5-1.7-15.4-2-22.9-1c-1.8,0.2-3.5-0.9-3.8-2.7l0-0.2c-0.4-1.9,1-3.7,2.9-4c8.6-1.2,16.9-0.8,25.3,1.1
				c9.2,2,17.7,5.8,25.5,11.1c7.8,5.4,14.3,12,19.5,19.9C144.3,66.3,147.9,75.3,149.7,84.9z"/>
		</g>
	</g>
</g>
<g>
	<path class="st2" d="M185.2,49.2h28.4c16.5,0,29.8,4.1,29.8,19.6c0,6.8-3.9,14.6-9.9,17v0.5c7.5,2.2,13.6,8,13.6,18.4
		c0,16.2-14.1,23.3-31,23.3h-30.8V49.2z M213.1,80c6.8,0,9.9-3.2,9.9-8s-3.2-6.8-9.9-6.8h-7V80H213.1z M214.6,112
		c8.2,0,12.1-2.9,12.1-8.7c0-5.8-3.9-8-12.1-8h-8.5V112H214.6z"/>
	<path class="st2" d="M269.1,49.2H290v61.4h29.8V128h-50.7V49.2z"/>
	<path class="st2" d="M356,49.2h25.2l24,78.8h-22.1l-7.6-32.9l-18.3,16.1l-3.9,16.7H332L356,49.2z M360.9,95.1h14.6l-1.3-5.5
		c-1.9-7.5-3.9-17.1-5.8-25h-0.5c-1.7,8-3.6,17.5-5.6,25L360.9,95.1z"/>
	<path class="st2" d="M417.6,115.4l32.3-48.7h-29.1V49.2h54.8v12.6l-32.3,48.7h32.5V128h-58.2V115.4z"/>
	<path class="st2" d="M497.8,49.2h50.9v17.5h-30.1V79h25.7v17.5h-25.7v14.1H550V128h-52.1V49.2z"/>
</g>
</svg>
