<?xml version="1.0" encoding="UTF-8"?><svg xmlns="http://www.w3.org/2000/svg" xmlns:xlink="http://www.w3.org/1999/xlink" fill-opacity="1" color-rendering="auto" color-interpolation="auto" text-rendering="auto" stroke="black" stroke-linecap="square" width="1685" stroke-miterlimit="10" shape-rendering="auto" stroke-opacity="1" fill="black" stroke-dasharray="none" font-weight="normal" stroke-width="1" height="864" font-family="'Dialog'" font-style="normal" stroke-linejoin="miter" font-size="12px" stroke-dashoffset="0" image-rendering="auto">
  <!--Generated by ySVG 2.6-->
  <defs id="genericDefs"/>
  <g>
    <defs id="defs1">
      <clipPath clipPathUnits="userSpaceOnUse" id="clipPath1">
        <path d="M0 0 L1685 0 L1685 864 L0 864 L0 0 Z"/>
      </clipPath>
      <clipPath clipPathUnits="userSpaceOnUse" id="clipPath2">
        <path d="M-140 -66 L1545 -66 L1545 798 L-140 798 L-140 -66 Z"/>
      </clipPath>
      <clipPath clipPathUnits="userSpaceOnUse" id="clipPath3">
        <path d="M448 -50 L448 8 L654 8 L654 -50 Z"/>
      </clipPath>
      <clipPath clipPathUnits="userSpaceOnUse" id="clipPath4">
        <path d="M221 181 L221 244 L421 244 L421 181 Z"/>
      </clipPath>
      <clipPath clipPathUnits="userSpaceOnUse" id="clipPath5">
        <path d="M719 181 L719 244 L919 244 L919 181 Z"/>
      </clipPath>
      <clipPath clipPathUnits="userSpaceOnUse" id="clipPath6">
        <path d="M1012 184 L1012 242 L1212 242 L1212 184 Z"/>
      </clipPath>
      <clipPath clipPathUnits="userSpaceOnUse" id="clipPath7">
        <path d="M1012 334 L1012 397 L1212 397 L1212 334 Z"/>
      </clipPath>
      <clipPath clipPathUnits="userSpaceOnUse" id="clipPath8">
        <path d="M535 661 L535 719 L735 719 L735 661 Z"/>
      </clipPath>
      <clipPath clipPathUnits="userSpaceOnUse" id="clipPath9">
        <path d="M1012 43 L1012 106 L1212 106 L1212 43 Z"/>
      </clipPath>
      <clipPath clipPathUnits="userSpaceOnUse" id="clipPath10">
        <path d="M-125 334 L-125 397 L75 397 L75 334 Z"/>
      </clipPath>
      <clipPath clipPathUnits="userSpaceOnUse" id="clipPath11">
        <path d="M221 334 L221 397 L421 397 L421 334 Z"/>
      </clipPath>
      <clipPath clipPathUnits="userSpaceOnUse" id="clipPath12">
        <path d="M41 499 L41 562 L241 562 L241 499 Z"/>
      </clipPath>
      <clipPath clipPathUnits="userSpaceOnUse" id="clipPath13">
        <path d="M41 661 L41 724 L241 724 L241 661 Z"/>
      </clipPath>
      <clipPath clipPathUnits="userSpaceOnUse" id="clipPath14">
        <path d="M535 499 L535 562 L735 562 L735 499 Z"/>
      </clipPath>
      <clipPath clipPathUnits="userSpaceOnUse" id="clipPath15">
        <path d="M1329 181 L1329 244 L1529 244 L1529 181 Z"/>
      </clipPath>
    </defs>
    <g fill="white" text-rendering="geometricPrecision" shape-rendering="geometricPrecision" transform="translate(140,66)" stroke="white">
      <rect x="-140" width="1685" height="864" y="-66" clip-path="url(#clipPath2)" stroke="none"/>
    </g>
    <g fill="rgb(255,204,0)" text-rendering="geometricPrecision" shape-rendering="geometricPrecision" transform="matrix(1,0,0,1,140,66)" stroke="rgb(255,204,0)">
      <rect x="448.75" width="206" height="58" y="-50.25" clip-path="url(#clipPath2)" stroke="none"/>
    </g>
    <g text-rendering="geometricPrecision" stroke-miterlimit="1.45" shape-rendering="geometricPrecision" transform="matrix(1,0,0,1,140,66)" stroke-linecap="butt">
      <rect fill="none" x="448.75" width="206" height="58" y="-50.25" clip-path="url(#clipPath2)"/>
      <text x="498.3557" xml:space="preserve" y="-32.4219" clip-path="url(#clipPath3)" font-family="sans-serif" stroke="none">&lt;&lt;meta package&gt;&gt;</text>
      <text x="515.493" font-size="13px" y="-6.0089" clip-path="url(#clipPath3)" font-family="sans-serif" stroke="none" font-weight="bold" xml:space="preserve">templating</text>
    </g>
    <g fill="rgb(255,204,0)" text-rendering="geometricPrecision" shape-rendering="geometricPrecision" transform="matrix(1,0,0,1,140,66)" stroke="rgb(255,204,0)">
      <rect x="221.5" width="200" height="63" y="181.5" clip-path="url(#clipPath2)" stroke="none"/>
    </g>
    <g text-rendering="geometricPrecision" stroke-miterlimit="1.45" shape-rendering="geometricPrecision" transform="matrix(1,0,0,1,140,66)" stroke-linecap="butt">
      <rect fill="none" x="221.5" width="200" height="63" y="181.5" clip-path="url(#clipPath2)"/>
      <text x="284.1917" xml:space="preserve" y="199.3281" clip-path="url(#clipPath4)" font-family="sans-serif" stroke="none">&lt;&lt;package&gt;&gt;</text>
      <text x="256.63" font-size="13px" y="225.7411" clip-path="url(#clipPath4)" font-family="sans-serif" stroke="none" font-weight="bold" xml:space="preserve">templating-runtime</text>
    </g>
    <g fill="rgb(153,204,255)" text-rendering="geometricPrecision" shape-rendering="geometricPrecision" transform="matrix(1,0,0,1,140,66)" stroke="rgb(153,204,255)">
      <rect x="719.5" width="200" height="63" y="181.5" clip-path="url(#clipPath2)" stroke="none"/>
    </g>
    <g text-rendering="geometricPrecision" stroke-miterlimit="1.45" shape-rendering="geometricPrecision" transform="matrix(1,0,0,1,140,66)" stroke-linecap="butt">
      <rect fill="none" x="719.5" width="200" height="63" y="181.5" clip-path="url(#clipPath2)"/>
      <text x="782.1918" xml:space="preserve" y="199.3281" clip-path="url(#clipPath5)" font-family="sans-serif" stroke="none">&lt;&lt;package&gt;&gt;</text>
      <text x="752.5305" font-size="13px" y="225.7411" clip-path="url(#clipPath5)" font-family="sans-serif" stroke="none" font-weight="bold" xml:space="preserve">templating-compiler</text>
    </g>
    <g fill="rgb(153,204,255)" text-rendering="geometricPrecision" shape-rendering="geometricPrecision" transform="matrix(1,0,0,1,140,66)" stroke="rgb(153,204,255)">
      <rect x="1012.75" width="200" height="58" y="184" clip-path="url(#clipPath2)" stroke="none"/>
    </g>
    <g text-rendering="geometricPrecision" stroke-miterlimit="1.45" shape-rendering="geometricPrecision" transform="matrix(1,0,0,1,140,66)" stroke-linecap="butt">
      <rect fill="none" x="1012.75" width="200" height="58" y="184" clip-path="url(#clipPath2)"/>
      <text x="1075.4418" xml:space="preserve" y="201.8281" clip-path="url(#clipPath6)" font-family="sans-serif" stroke="none">&lt;&lt;package&gt;&gt;</text>
      <text x="1039.2415" font-size="13px" y="228.2411" clip-path="url(#clipPath6)" font-family="sans-serif" stroke="none" font-weight="bold" xml:space="preserve">caching-html-compiler</text>
    </g>
    <g fill="rgb(153,204,255)" text-rendering="geometricPrecision" shape-rendering="geometricPrecision" transform="matrix(1,0,0,1,140,66)" stroke="rgb(153,204,255)">
      <rect x="1012.75" width="200" height="63" y="334.5" clip-path="url(#clipPath2)" stroke="none"/>
    </g>
    <g text-rendering="geometricPrecision" stroke-miterlimit="1.45" shape-rendering="geometricPrecision" transform="matrix(1,0,0,1,140,66)" stroke-linecap="butt">
      <rect fill="none" x="1012.75" width="200" height="63" y="334.5" clip-path="url(#clipPath2)"/>
      <text x="1075.4418" xml:space="preserve" y="352.3281" clip-path="url(#clipPath7)" font-family="sans-serif" stroke="none">&lt;&lt;package&gt;&gt;</text>
      <text x="1058.319" font-size="13px" y="378.7411" clip-path="url(#clipPath7)" font-family="sans-serif" stroke="none" font-weight="bold" xml:space="preserve">templating-tools</text>
    </g>
    <g fill="rgb(153,204,255)" text-rendering="geometricPrecision" shape-rendering="geometricPrecision" transform="matrix(1,0,0,1,140,66)" stroke="rgb(153,204,255)">
      <rect x="535.25" width="200" height="58" y="661.5" clip-path="url(#clipPath2)" stroke="none"/>
    </g>
    <g text-rendering="geometricPrecision" stroke-miterlimit="1.45" shape-rendering="geometricPrecision" transform="matrix(1,0,0,1,140,66)" stroke-linecap="butt">
      <rect fill="none" x="535.25" width="200" height="58" y="661.5" clip-path="url(#clipPath2)"/>
      <text x="597.9418" xml:space="preserve" y="679.3281" clip-path="url(#clipPath8)" font-family="sans-serif" stroke="none">&lt;&lt;package&gt;&gt;</text>
      <text x="571.8619" font-size="13px" y="705.7411" clip-path="url(#clipPath8)" font-family="sans-serif" stroke="none" font-weight="bold" xml:space="preserve">spacebars-compiler</text>
    </g>
    <g fill="rgb(255,153,0)" text-rendering="geometricPrecision" shape-rendering="geometricPrecision" transform="matrix(1,0,0,1,140,66)" stroke="rgb(255,153,0)">
      <rect x="1012.75" width="200" height="63" y="43.25" clip-path="url(#clipPath2)" stroke="none"/>
    </g>
    <g text-rendering="geometricPrecision" stroke-miterlimit="1.45" shape-rendering="geometricPrecision" transform="matrix(1,0,0,1,140,66)" stroke-linecap="butt">
      <rect fill="none" x="1012.75" width="200" height="63" y="43.25" clip-path="url(#clipPath2)"/>
      <text x="1063.5497" xml:space="preserve" y="61.0781" clip-path="url(#clipPath9)" font-family="sans-serif" stroke="none">&lt;&lt;ext. package&gt;&gt;</text>
      <text x="1033.749" font-size="13px" y="87.4911" clip-path="url(#clipPath9)" font-family="sans-serif" stroke="none" font-weight="bold" xml:space="preserve">isobuild:compiler-plugin</text>
    </g>
    <g fill="rgb(255,204,0)" text-rendering="geometricPrecision" shape-rendering="geometricPrecision" transform="matrix(1,0,0,1,140,66)" stroke="rgb(255,204,0)">
      <rect x="-125" width="200" height="63" y="334.5" clip-path="url(#clipPath2)" stroke="none"/>
    </g>
    <g text-rendering="geometricPrecision" stroke-miterlimit="1.45" shape-rendering="geometricPrecision" transform="matrix(1,0,0,1,140,66)" stroke-linecap="butt">
      <rect fill="none" x="-125" width="200" height="63" y="334.5" clip-path="url(#clipPath2)"/>
      <text x="-62.3083" xml:space="preserve" y="352.3281" clip-path="url(#clipPath10)" font-family="sans-serif" stroke="none">&lt;&lt;package&gt;&gt;</text>
      <text x="-42.0365" font-size="13px" y="378.7411" clip-path="url(#clipPath10)" font-family="sans-serif" stroke="none" font-weight="bold" xml:space="preserve">blaze</text>
    </g>
    <g fill="rgb(255,204,0)" text-rendering="geometricPrecision" shape-rendering="geometricPrecision" transform="matrix(1,0,0,1,140,66)" stroke="rgb(255,204,0)">
      <rect x="221.5" width="200" height="63" y="334.5" clip-path="url(#clipPath2)" stroke="none"/>
    </g>
    <g text-rendering="geometricPrecision" stroke-miterlimit="1.45" shape-rendering="geometricPrecision" transform="matrix(1,0,0,1,140,66)" stroke-linecap="butt">
      <rect fill="none" x="221.5" width="200" height="63" y="334.5" clip-path="url(#clipPath2)"/>
      <text x="284.1917" xml:space="preserve" y="352.3281" clip-path="url(#clipPath11)" font-family="sans-serif" stroke="none">&lt;&lt;package&gt;&gt;</text>
      <text x="288.8245" font-size="13px" y="378.7411" clip-path="url(#clipPath11)" font-family="sans-serif" stroke="none" font-weight="bold" xml:space="preserve">spacebars</text>
    </g>
    <g fill="rgb(255,204,0)" text-rendering="geometricPrecision" shape-rendering="geometricPrecision" transform="matrix(1,0,0,1,140,66)" stroke="rgb(255,204,0)">
      <rect x="41.5" width="200" height="63" y="499.875" clip-path="url(#clipPath2)" stroke="none"/>
    </g>
    <g text-rendering="geometricPrecision" stroke-miterlimit="1.45" shape-rendering="geometricPrecision" transform="matrix(1,0,0,1,140,66)" stroke-linecap="butt">
      <rect fill="none" x="41.5" width="200" height="63" y="499.875" clip-path="url(#clipPath2)"/>
      <text x="104.1917" xml:space="preserve" y="517.7031" clip-path="url(#clipPath12)" font-family="sans-serif" stroke="none">&lt;&lt;package&gt;&gt;</text>
      <text x="120.83" font-size="13px" y="544.1161" clip-path="url(#clipPath12)" font-family="sans-serif" stroke="none" font-weight="bold" xml:space="preserve">htmljs</text>
    </g>
    <g fill="rgb(255,204,0)" text-rendering="geometricPrecision" shape-rendering="geometricPrecision" transform="matrix(1,0,0,1,140,66)" stroke="rgb(255,204,0)">
      <rect x="41.5" width="200" height="63" y="661.5" clip-path="url(#clipPath2)" stroke="none"/>
    </g>
    <g text-rendering="geometricPrecision" stroke-miterlimit="1.45" shape-rendering="geometricPrecision" transform="matrix(1,0,0,1,140,66)" stroke-linecap="butt">
      <rect fill="none" x="41.5" width="200" height="63" y="661.5" clip-path="url(#clipPath2)"/>
      <text x="104.1917" xml:space="preserve" y="679.3281" clip-path="url(#clipPath13)" font-family="sans-serif" stroke="none">&lt;&lt;package&gt;&gt;</text>
      <text x="106.2895" font-size="13px" y="705.7411" clip-path="url(#clipPath13)" font-family="sans-serif" stroke="none" font-weight="bold" xml:space="preserve">blaze-tools</text>
    </g>
    <g fill="rgb(153,204,255)" text-rendering="geometricPrecision" shape-rendering="geometricPrecision" transform="matrix(1,0,0,1,140,66)" stroke="rgb(153,204,255)">
      <rect x="535.25" width="200" height="63" y="499.875" clip-path="url(#clipPath2)" stroke="none"/>
    </g>
    <g text-rendering="geometricPrecision" stroke-miterlimit="1.45" shape-rendering="geometricPrecision" transform="matrix(1,0,0,1,140,66)" stroke-linecap="butt">
      <rect fill="none" x="535.25" width="200" height="63" y="499.875" clip-path="url(#clipPath2)"/>
      <text x="597.9418" xml:space="preserve" y="517.7031" clip-path="url(#clipPath14)" font-family="sans-serif" stroke="none">&lt;&lt;package&gt;&gt;</text>
      <text x="601.619" font-size="13px" y="544.1161" clip-path="url(#clipPath14)" font-family="sans-serif" stroke="none" font-weight="bold" xml:space="preserve">html-tools</text>
    </g>
    <g fill="rgb(153,204,255)" text-rendering="geometricPrecision" shape-rendering="geometricPrecision" transform="matrix(1,0,0,1,140,66)" stroke="rgb(153,204,255)">
      <rect x="1329.5" width="200" height="63" y="181.5" clip-path="url(#clipPath2)" stroke="none"/>
    </g>
    <g text-rendering="geometricPrecision" stroke-miterlimit="1.45" shape-rendering="geometricPrecision" transform="matrix(1,0,0,1,140,66)" stroke-linecap="butt">
      <rect fill="none" x="1329.5" width="200" height="63" y="181.5" clip-path="url(#clipPath2)"/>
      <text x="1392.1918" xml:space="preserve" y="199.3281" clip-path="url(#clipPath15)" font-family="sans-serif" stroke="none">&lt;&lt;package&gt;&gt;</text>
      <text x="1393.828" font-size="13px" y="225.7411" clip-path="url(#clipPath15)" font-family="sans-serif" stroke="none" font-weight="bold" xml:space="preserve">static-html</text>
      <path fill="none" d="M523.2217 7.7739 L358.0606 175.8043" clip-path="url(#clipPath2)"/>
      <path d="M352.4527 181.5096 L364.4304 176.4565 L358.7616 175.0911 L357.2987 169.4466 Z" clip-path="url(#clipPath2)" stroke="none"/>
      <path fill="none" d="M584.9246 7.7739 L777.4852 176.242" clip-path="url(#clipPath2)"/>
      <path d="M783.5062 181.5096 L777.767 169.8451 L776.7326 175.5835 L771.1824 177.3712 Z" clip-path="url(#clipPath2)" stroke="none"/>
      <path fill="none" d="M421.4708 213 L711.4583 213" clip-path="url(#clipPath2)"/>
      <path d="M719.4583 213 L707.4583 208 L710.4583 213 L707.4583 218 Z" clip-path="url(#clipPath2)" stroke="none"/>
      <path fill="none" d="M919.4813 213 L1004.7656 213" clip-path="url(#clipPath2)"/>
      <path d="M1012.7656 213 L1000.7656 208 L1003.7656 213 L1000.7656 218 Z" clip-path="url(#clipPath2)" stroke="none"/>
      <path fill="none" d="M879.8898 244.5077 L1045.3103 330.8141" clip-path="url(#clipPath2)"/>
      <path d="M1052.403 334.5146 L1044.0767 324.5309 L1044.4237 330.3515 L1039.451 333.3968 Z" clip-path="url(#clipPath2)" stroke="none"/>
      <path fill="none" d="M1112.75 242.0237 L1112.75 326.4914" clip-path="url(#clipPath2)"/>
      <path d="M1112.75 334.4914 L1117.75 322.4914 L1112.75 325.4914 L1107.75 322.4914 Z" clip-path="url(#clipPath2)" stroke="none"/>
      <path fill="none" d="M1112.75 397.4914 L1112.75 690.5 L743.244 690.5" clip-path="url(#clipPath2)"/>
      <path d="M735.244 690.5 L747.244 695.5 L744.244 690.5 L747.244 685.5 Z" clip-path="url(#clipPath2)" stroke="none"/>
      <path fill="none" d="M886.3333 181.4921 L1038.7109 109.655" clip-path="url(#clipPath2)"/>
      <path d="M1045.9471 106.2436 L1032.9607 106.8381 L1037.8064 110.0815 L1037.225 115.8834 Z" clip-path="url(#clipPath2)" stroke="none"/>
      <path fill="none" d="M250.1443 244.5077 L53.6234 331.2832" clip-path="url(#clipPath2)"/>
      <path d="M46.3051 334.5146 L59.3022 334.2414 L54.5382 330.8792 L55.2629 325.0935 Z" clip-path="url(#clipPath2)" stroke="none"/>
      <path fill="none" stroke-dasharray="6,2" d="M-25 334.4698 L-25 -21.25 L440.7841 -21.25" clip-path="url(#clipPath2)" stroke="rgb(51,51,51)"/>
      <path fill="rgb(51,51,51)" stroke-dasharray="6,2" d="M448.7841 -21.25 L436.7841 -26.25 L439.7841 -21.25 L436.7841 -16.25 Z" clip-path="url(#clipPath2)" stroke="none"/>
      <path fill="none" d="M321.5 244.489 L321.5 326.5246" clip-path="url(#clipPath2)"/>
      <path d="M321.5 334.5246 L326.5 322.5246 L321.5 325.5246 L316.5 322.5246 Z" clip-path="url(#clipPath2)" stroke="none"/>
      <path fill="none" d="M221.4667 366 L82.9767 366" clip-path="url(#clipPath2)"/>
      <path d="M74.9767 366 L86.9767 371 L83.9767 366 L86.9767 361 Z" clip-path="url(#clipPath2)" stroke="none"/>
      <path fill="none" d="M287.2007 397.5125 L181.6464 494.4905" clip-path="url(#clipPath2)"/>
      <path d="M175.7553 499.9029 L187.9748 495.4662 L182.3828 493.8139 L181.2092 488.1023 Z" clip-path="url(#clipPath2)" stroke="none"/>
      <path fill="none" d="M6.7269 397.5125 L104.1378 494.2653" clip-path="url(#clipPath2)"/>
      <path d="M109.8138 499.9029 L104.8234 487.899 L103.4283 493.5606 L97.7763 494.994 Z" clip-path="url(#clipPath2)" stroke="none"/>
      <path fill="none" d="M545.2937 661.509 L246.8342 565.322" clip-path="url(#clipPath2)"/>
      <path d="M239.2199 562.868 L249.1076 571.3079 L247.786 565.6287 L252.1751 561.79 Z" clip-path="url(#clipPath2)" stroke="none"/>
      <path fill="none" stroke-dasharray="6,2" d="M-25 397.4945 L-25 693 L33.4618 693" clip-path="url(#clipPath2)" stroke="rgb(51,51,51)"/>
      <path fill="rgb(51,51,51)" stroke-dasharray="6,2" d="M41.4618 693 L29.4618 688 L32.4618 693 L29.4618 698 Z" clip-path="url(#clipPath2)" stroke="none"/>
      <path fill="none" d="M535.2283 691.0065 L249.518 692.4531" clip-path="url(#clipPath2)"/>
      <path d="M241.5181 692.4936 L253.5433 697.4327 L250.518 692.448 L253.4926 687.4329 Z" clip-path="url(#clipPath2)" stroke="none"/>
      <path fill="none" d="M141.5 661.472 L141.5 570.8511" clip-path="url(#clipPath2)"/>
      <path d="M141.5 562.8511 L136.5 574.8511 L141.5 571.8511 L146.5 574.8511 Z" clip-path="url(#clipPath2)" stroke="none"/>
      <path fill="none" stroke-dasharray="6,2" d="M241.4938 548.2812 L527.2352 548.2812" clip-path="url(#clipPath2)" stroke="rgb(51,51,51)"/>
      <path fill="rgb(51,51,51)" stroke-dasharray="6,2" d="M535.2352 548.2812 L523.2352 543.2812 L526.2352 548.2812 L523.2352 553.2812 Z" clip-path="url(#clipPath2)" stroke="none"/>
      <path fill="none" stroke-dasharray="6,2" d="M-25 334.4592 L-25 320.1875 L635.25 320.1875 L635.25 491.8979" clip-path="url(#clipPath2)" stroke="rgb(51,51,51)"/>
      <path fill="rgb(51,51,51)" stroke-dasharray="6,2" d="M635.25 499.8979 L640.25 487.8979 L635.25 490.8979 L630.25 487.8979 Z" clip-path="url(#clipPath2)" stroke="none"/>
      <path fill="none" d="M635.25 661.4799 L635.25 570.853" clip-path="url(#clipPath2)"/>
      <path d="M635.25 562.853 L630.25 574.853 L635.25 571.853 L640.25 574.853 Z" clip-path="url(#clipPath2)" stroke="none"/>
      <path fill="none" d="M535.2555 528.1411 L249.5409 529.4398" clip-path="url(#clipPath2)"/>
      <path d="M241.5409 529.4761 L253.5636 534.4215 L250.5408 529.4352 L253.5181 524.4216 Z" clip-path="url(#clipPath2)" stroke="none"/>
      <path fill="none" stroke-dasharray="6,2" d="M743.2202 531.375 L833.5443 531.375 L833.5443 782.0312 L141.5 782.0312 L141.5 732.5174" clip-path="url(#clipPath2)" stroke="rgb(51,51,51)"/>
      <path fill="rgb(51,51,51)" stroke-dasharray="6,2" d="M735.2202 531.375 L747.2202 536.375 L744.2202 531.375 L747.2202 526.375 Z" clip-path="url(#clipPath2)" stroke="none"/>
      <path fill="rgb(51,51,51)" stroke-dasharray="6,2" d="M141.5 724.5174 L136.5 736.5174 L141.5 733.5174 L146.5 736.5174 Z" clip-path="url(#clipPath2)" stroke="none"/>
      <path fill="none" d="M1357.311 181.4921 L1192.2383 109.4438" clip-path="url(#clipPath2)"/>
      <path d="M1184.9062 106.2436 L1193.9042 115.6264 L1193.1548 109.8438 L1197.9044 106.4613 Z" clip-path="url(#clipPath2)" stroke="none"/>
      <path fill="none" d="M1329.4717 213 L1220.7245 213" clip-path="url(#clipPath2)"/>
      <path d="M1212.7245 213 L1224.7245 218 L1221.7245 213 L1224.7245 208 Z" clip-path="url(#clipPath2)" stroke="none"/>
      <path fill="none" d="M1364.2709 244.5077 L1185.1366 331.035" clip-path="url(#clipPath2)"/>
      <path d="M1177.933 334.5146 L1190.9132 333.7975 L1186.0371 330.6001 L1186.5637 324.7929 Z" clip-path="url(#clipPath2)" stroke="none"/>
    </g>
  </g>
</svg>
